<?xml version="1.0" standalone="no"?>
<!DOCTYPE svg PUBLIC "-//W3C//DTD SVG 20010904//EN"
 "http://www.w3.org/TR/2001/REC-SVG-20010904/DTD/svg10.dtd">
<svg version="1.0" xmlns="http://www.w3.org/2000/svg"
 width="980.000000pt" height="980.000000pt" viewBox="0 0 980.000000 980.000000"
 preserveAspectRatio="xMidYMid meet">
<metadata>
Created by potrace 1.15, written by Peter Selinger 2001-2017
</metadata>
<g transform="translate(0.000000,980.000000) scale(0.100000,-0.100000)"
fill="#181818" stroke="none">
<path d="M2453 8926 c-1344 -480 -2445 -874 -2447 -877 -8 -7 1000 -5939 1010
-5949 5 -5 881 -479 1947 -1054 l1938 -1046 1937 1046 c1065 575 1940 1049
1944 1052 11 11 1018 5946 1010 5953 -7 6 -4886 1749 -4893 1749 -2 -1 -1103
-394 -2446 -874z m4515 -586 c1118 -412 2035 -750 2038 -753 3 -2 -188 -1137
-423 -2522 l-428 -2517 -1628 -874 -1628 -874 -1622 872 c-892 479 -1625 874
-1629 877 -8 7 -861 5032 -855 5038 3 2 927 343 2053 758 1301 479 2056 752
2069 748 11 -3 935 -342 2053 -753z"/>
<path d="M3532 5933 c-749 -1638 -1377 -3013 -1396 -3056 l-35 -77 437 0 437
0 290 610 289 610 1346 0 1347 0 289 -610 289 -610 437 0 437 0 -35 77 c-645
1419 -2759 6033 -2764 6033 -4 0 -619 -1340 -1368 -2977z m1834 -60 l460 -968
-463 -3 c-255 -1 -671 -1 -926 0 l-463 3 460 968 c252 532 462 967 466 967 4
0 214 -435 466 -967z"/>
</g>
</svg>
